# xmcd
#
# Track frame offsets:
#	150
#	18061
#	36599
#	51348
#	80380
#	95854
#	113419
#	138131
#	166924
#	181060
#	199461
#
# Disc length: 2944
#
# Revision: 1
# Processed by: cddbd v1.5.1PL0 Copyright (c) Steve Scherf et al.
# Submitted via: Media_Universe 3.0
# Normalized: r0:TRMNUM
#
DISCID=8b0b7e0b
DTITLE=John Lee Hooker - Chill out
DYEAR=1900
DGENRE=Blues
TTITLE0=Chill Out (Things Gonna Change)
TTITLE1=Deep Blue Sea
TTITLE2=Kiddio
TTITLE3=Medley- Serves Me Right to Suffer_Syndicator
TTITLE4=One Bourbon, One Scotch, One Beer
TTITLE5=Tupelo
TTITLE6=Woman on My Mind
TTITLE7=Too Young
TTITLE8=Talkin' the Blues
TTITLE9=If You've Never Been in Love
TTITLE10=We'll Meet Again
EXTD=
EXTT0=
EXTT1=
EXTT2=
EXTT3=
EXTT4=
EXTT5=
EXTT6=
EXTT7=
EXTT8=
EXTT9=
EXTT10=
PLAYORDER=
